HIERARCHY
ROOT Hips
{
	OFFSET 0.000000 0.000000 0.000000
	CHANNELS 6 Xposition Yposition Zposition Xrotation Yrotation Zrotation
	JOINT LeftUpLeg_virtual
	{
		OFFSET 0.000000 0.000000 0.000000
		CHANNELS 3 Xrotation Yrotation Zrotation
		JOINT LeftUpLeg
		{
			OFFSET 11.394100 -6.187798 -0.413800
			CHANNELS 3 Xrotation Yrotation Zrotation
			JOINT LeftLeg
			{
				OFFSET 0.430247 -32.302673 3.732800
				CHANNELS 3 Xrotation Yrotation Zrotation
				JOINT LeftFoot
				{
					OFFSET -0.430247 -48.264931 -6.423300
					CHANNELS 3 Xrotation Yrotation Zrotation
					JOINT LeftToeBase
					{
						OFFSET 4.230900 -16.068199 23.438400
						CHANNELS 3 Xrotation Yrotation Zrotation
						JOINT LeftToe_End
						{
							OFFSET 4.510700 0.695400 19.974600
							CHANNELS 3 Xrotation Yrotation Zrotation
							End Site
							{
								OFFSET 0 0 0
							}
						}
					}
				}
			}
		}
	}
	JOINT RightUpLeg_virtual
	{
		OFFSET 0.000000 0.000000 0.000000
		CHANNELS 3 Xrotation Yrotation Zrotation
		JOINT RightUpLeg
		{
			OFFSET -11.333700 -6.187798 -0.413800
			CHANNELS 3 Xrotation Yrotation Zrotation
			JOINT RightLeg
			{
				OFFSET -0.430392 -32.302628 3.733000
				CHANNELS 3 Xrotation Yrotation Zrotation
				JOINT RightFoot
				{
					OFFSET 0.430392 -48.264973 -6.423500
					CHANNELS 3 Xrotation Yrotation Zrotation
					JOINT RightToeBase
					{
						OFFSET -4.230900 -16.068199 23.438400
						CHANNELS 3 Xrotation Yrotation Zrotation
						JOINT RightToe_End
						{
							OFFSET -4.510700 0.695400 19.974600
							CHANNELS 3 Xrotation Yrotation Zrotation
							End Site
							{
								OFFSET 0 0 0
							}
						}
					}
				}
			}
		}
	}
	JOINT Spine_virtual
	{
		OFFSET 0.000000 0.000000 0.000000
		CHANNELS 3 Xrotation Yrotation Zrotation
		JOINT Spine
		{
			OFFSET -0.002400 12.777504 0.315300
			CHANNELS 3 Xrotation Yrotation Zrotation
			JOINT Spine1
			{
				OFFSET -0.002067 5.816869 0.032633
				CHANNELS 3 Xrotation Yrotation Zrotation
				JOINT Spine1_split
				{
					OFFSET -0.002067 5.816869 0.032633
					CHANNELS 3 Xrotation Yrotation Zrotation
					JOINT Spine2
					{
						OFFSET -0.002067 5.816869 0.032633
						CHANNELS 3 Xrotation Yrotation Zrotation
						JOINT Neck_virtual
						{
							OFFSET 0.000000 0.000000 0.000000
							CHANNELS 3 Xrotation Yrotation Zrotation
							JOINT Neck
							{
								OFFSET -0.003700 21.199493 -0.826900
								CHANNELS 3 Xrotation Yrotation Zrotation
								JOINT Head
								{
									OFFSET 0.000000 20.442200 4.834800
									CHANNELS 3 Xrotation Yrotation Zrotation
									JOINT HeadTop_End
									{
										OFFSET 0.000000 34.668396 4.968400
										CHANNELS 3 Xrotation Yrotation Zrotation
										End Site
										{
											OFFSET 0 0 0
										}
									}
								}
							}
						}
						JOINT LeftShoulder_virtual
						{
							OFFSET 0.000000 0.000000 0.000000
							CHANNELS 3 Xrotation Yrotation Zrotation
							JOINT LeftShoulder
							{
								OFFSET 3.288150 8.794197 -1.372250
								CHANNELS 3 Xrotation Yrotation Zrotation
								JOINT LeftShoulder_split
								{
									OFFSET 3.288150 8.794197 -1.372250
									CHANNELS 3 Xrotation Yrotation Zrotation
									JOINT LeftArm
									{
										OFFSET 11.953299 -2.279007 -0.146200
										CHANNELS 3 Xrotation Yrotation Zrotation
										JOINT LeftForeArm
										{
											OFFSET 18.448900 0.000000 0.000000
											CHANNELS 3 Xrotation Yrotation Zrotation
											JOINT LeftHand
											{
												OFFSET 29.527798 0.000000 0.000000
												CHANNELS 3 Xrotation Yrotation Zrotation
												End Site
												{
													OFFSET 0 0 0
												}
											}
										}
									}
								}
							}
						}
						JOINT RightShoulder_virtual
						{
							OFFSET 0.000000 0.000000 0.000000
							CHANNELS 3 Xrotation Yrotation Zrotation
							JOINT RightShoulder
							{
								OFFSET -3.249400 8.794197 -1.372250
								CHANNELS 3 Xrotation Yrotation Zrotation
								JOINT RightShoulder_split
								{
									OFFSET -3.249400 8.794197 -1.372250
									CHANNELS 3 Xrotation Yrotation Zrotation
									JOINT RightArm
									{
										OFFSET -11.953299 -2.279007 -0.146200
										CHANNELS 3 Xrotation Yrotation Zrotation
										JOINT RightForeArm
										{
											OFFSET -18.448900 0.000000 0.000000
											CHANNELS 3 Xrotation Yrotation Zrotation
											JOINT RightHand
											{
												OFFSET -29.527802 0.000000 0.000000
												CHANNELS 3 Xrotation Yrotation Zrotation
												End Site
												{
													OFFSET 0 0 0
												}
											}
										}
									}
								}
							}
						}
					}
				}
			}
		}
	}
}
MOTION
Frames: 11
Frame Time: 0.03333333
65.905090 99.099922 42.118275 0.000000 0.000000 0.000000 1.296062 65.594623 -3.873322 -25.980358 -13.292515 -0.419175 20.987348 -3.683731 -7.494152 2.928396 -17.036143 4.225882 2.895797 -4.578368 2.389734 0.000000 0.000000 0.000000 2.287256 70.294552 -4.925125 5.390529 -8.428969 1.062968 29.207183 2.864411 -4.262694 4.022342 -17.167096 13.537975 -31.100618 -0.545640 5.934145 0.000000 0.000000 0.000000 -1.271384 63.448926 -2.117283 6.742317 14.471943 -2.985577 -1.164920 12.401438 -1.355104 1.193162 -1.619148 0.478117 0.000000 0.000000 0.000000 -0.306255 12.379187 -1.714306 25.940442 -15.829447 7.753157 -32.615690 -67.916252 -1.692947 0.000000 0.000000 0.000000 -0.758712 12.372416 -1.392527 -2.990864 -7.469877 -15.936267 1.575784 3.837626 -4.553087 26.817227 -53.116298 -29.108634 -2.578131 -70.674686 -2.763412 0.000000 0.000000 0.000000 -0.945079 11.948265 -2.196426 -6.691559 32.325356 19.603860 -5.666760 -0.054755 1.926321 -3.388317 26.838308 53.908788 -3.607968 49.159651 -0.221415 0.000000 0.000000 0.000000 
65.365616 99.024605 42.034126 0.000000 0.000000 0.000000 1.296867 63.551290 -3.673534 -26.521023 -13.234104 -0.131070 21.330303 -2.296934 -7.481460 3.089594 -16.567618 4.021654 3.480339 -4.563833 2.143320 0.000000 0.000000 0.000000 2.283814 68.133644 -4.723285 5.553842 -8.785065 0.128898 28.015363 1.922217 -4.510259 0.589945 -19.121979 9.776238 -25.357822 -1.358449 8.876714 0.000000 0.000000 0.000000 -0.639964 61.367522 -2.587358 6.749060 14.078531 -2.821962 -1.077598 11.901036 -1.134791 1.056099 -1.774171 0.527669 0.000000 0.000000 0.000000 -0.217823 11.920183 -1.493010 24.125393 -15.294144 6.974200 -31.564329 -67.447169 -1.045635 0.000000 0.000000 0.000000 -0.839602 11.960274 -1.259959 -2.930905 -7.035632 -15.887577 0.853075 3.997029 -4.481651 28.418681 -55.077375 -27.941196 -1.174219 -68.274899 -1.569873 0.000000 0.000000 0.000000 -0.907168 11.589758 -1.961401 -6.982470 31.411395 20.604244 -5.725392 0.194481 2.224421 -3.989192 25.262527 54.523867 -3.401017 48.666307 -0.265277 0.000000 0.000000 0.000000 
64.757706 98.998596 41.995201 0.000000 0.000000 0.000000 1.346825 61.144666 -3.476346 -27.058148 -12.847499 0.382261 21.911986 -0.777450 -7.481910 3.136359 -16.054254 3.620149 3.954136 -4.533820 1.978899 0.000000 0.000000 0.000000 2.333552 65.576803 -4.467652 5.728463 -9.093424 -0.864615 26.945480 0.968340 -4.846394 -1.928232 -21.504067 6.985980 -21.217909 -1.970027 11.029235 0.000000 0.000000 0.000000 -0.263807 59.123511 -2.804782 6.719181 13.632373 -2.611944 -0.977506 11.338613 -0.997503 0.866604 -1.937885 0.534424 0.000000 0.000000 0.000000 -0.129420 11.384496 -1.346119 21.896996 -14.654318 5.721835 -29.708393 -66.644826 0.004620 0.000000 0.000000 0.000000 -0.858494 11.458792 -1.197667 -2.879006 -6.620780 -15.875183 0.402587 4.335475 -4.362419 29.236772 -56.543216 -27.424369 0.338782 -66.196568 -0.366390 0.000000 0.000000 0.000000 -0.795970 11.150152 -1.795780 -7.163419 30.499595 21.458953 -5.510957 0.246559 2.494393 -4.484058 24.354665 54.354451 -3.200172 48.432906 -0.255405 0.000000 0.000000 0.000000 
64.109581 98.961655 41.976208 0.000000 0.000000 0.000000 1.485366 58.432193 -3.343918 -27.532283 -12.133882 1.146476 22.685205 0.729203 -7.449985 3.115149 -15.468954 3.109046 4.037963 -4.509372 1.892168 0.000000 0.000000 0.000000 2.572590 62.713130 -4.360390 5.898660 -9.289786 -1.700280 25.611799 0.444606 -5.339652 -4.181055 -23.693858 5.622185 -18.781835 -2.233188 11.458813 0.000000 0.000000 0.000000 -0.010971 56.666261 -2.901658 6.650161 13.135464 -2.347840 -0.876007 10.715313 -0.904453 0.745644 -2.109807 0.583646 0.000000 0.000000 0.000000 -0.064860 10.767294 -1.230720 19.372011 -13.863021 3.832812 -26.788842 -65.345636 1.643894 0.000000 0.000000 0.000000 -0.839052 10.867100 -1.157600 -2.837741 -6.211838 -15.946682 0.256578 4.613298 -4.224888 28.745698 -57.208206 -28.120953 1.681162 -64.922915 0.636549 0.000000 0.000000 0.000000 -0.635730 10.598056 -1.684098 -7.210360 29.597115 22.111634 -5.196802 0.055700 2.725836 -4.324849 24.098007 53.241287 -2.996970 49.057461 -0.215660 0.000000 0.000000 0.000000 
63.412621 98.903870 41.943531 0.000000 0.000000 0.000000 1.834083 55.431572 -3.393579 -27.932033 -11.135126 2.139856 23.602130 2.059669 -7.333121 3.109601 -14.771112 2.683396 3.791688 -4.512172 1.840843 0.000000 0.000000 0.000000 2.921806 59.654681 -4.355884 6.038674 -9.592342 -2.157635 24.232826 0.181110 -5.910411 -6.905221 -25.417659 4.954570 -16.935808 -1.975508 9.997619 0.000000 0.000000 0.000000 0.303408 54.056112 -3.047060 6.543498 12.598700 -1.998021 -0.762466 10.024319 -0.800623 0.690030 -2.167686 0.599977 0.000000 0.000000 0.000000 -0.020094 10.061470 -1.100564 16.675278 -12.853867 1.283012 -23.181324 -63.515220 3.601289 0.000000 0.000000 0.000000 -0.785784 10.186977 -1.086673 -2.789187 -5.745584 -16.108052 0.271305 4.785952 -4.191454 26.968679 -56.891036 -30.095740 2.650254 -64.641989 1.323483 0.000000 0.000000 0.000000 -0.486111 9.929055 -1.572429 -7.124921 28.689550 22.557289 -4.832596 -0.188896 2.935391 -3.271724 24.312174 51.349243 -2.845296 50.999021 -0.149350 0.000000 0.000000 0.000000 
62.593994 98.794785 41.941452 0.000000 0.000000 0.000000 2.189798 52.357355 -3.495147 -28.238977 -9.866572 3.334424 24.504658 3.104803 -7.150918 3.134487 -13.929436 2.417639 3.443229 -4.526963 1.745825 0.000000 0.000000 0.000000 3.213877 56.543742 -4.326719 5.937115 -9.966319 -2.225992 22.828073 0.136439 -6.465934 -10.562820 -26.405402 4.326162 -14.351797 -1.214981 7.079997 0.000000 0.000000 0.000000 0.601658 51.453068 -3.222001 6.427756 12.001259 -1.598248 -0.628158 9.263290 -0.647384 0.693730 -2.134703 0.582697 0.000000 0.000000 0.000000 0.031401 9.280041 -0.920909 13.972849 -11.663305 -1.766954 -19.279884 -61.257105 5.598291 0.000000 0.000000 0.000000 -0.672414 9.426639 -0.940596 -2.711609 -5.286749 -16.337278 0.356220 4.688547 -4.230554 24.536838 -55.792387 -32.786428 3.156872 -65.196819 1.640329 0.000000 0.000000 0.000000 -0.362543 9.159928 -1.415104 -6.912121 27.745285 22.823265 -4.438228 -0.249945 3.085766 -1.429623 24.728563 49.177847 -2.694233 54.458707 -0.116035 0.000000 0.000000 0.000000 
61.677498 98.659119 41.904079 0.000000 0.000000 0.000000 2.496440 49.196517 -3.589173 -28.450096 -8.355318 4.649103 25.111708 3.794401 -6.896122 3.187890 -12.934117 2.287646 3.158859 -4.542857 1.571279 0.000000 0.000000 0.000000 3.359509 53.538520 -4.270167 5.511910 -10.434226 -2.072010 21.686995 0.328218 -6.916909 -14.159237 -26.369777 3.950392 -11.295822 -0.297299 3.496834 0.000000 0.000000 0.000000 0.814805 48.929259 -3.344621 6.322139 11.350004 -1.199053 -0.469619 8.451081 -0.432129 0.797706 -2.025044 0.553964 0.000000 0.000000 0.000000 0.121052 8.457857 -0.684839 11.461847 -10.303106 -5.005872 -15.611454 -58.763799 7.368810 0.000000 0.000000 0.000000 -0.492479 8.623324 -0.712793 -2.594000 -4.870210 -16.572418 0.433958 4.276511 -4.274690 22.032010 -54.339663 -35.657771 3.210282 -66.252500 1.655569 0.000000 0.000000 0.000000 -0.243372 8.328697 -1.201101 -6.610139 26.706403 23.016269 -4.037400 0.009975 3.170918 0.932999 25.084283 47.108853 -2.506394 59.159847 -0.136821 0.000000 0.000000 0.000000 
60.633484 98.593697 41.817612 0.000000 0.000000 0.000000 2.696780 46.131842 -3.613854 -28.547054 -6.667777 5.978293 25.305504 4.062768 -6.580552 3.251111 -11.824639 2.155526 2.949953 -4.545473 1.377625 0.000000 0.000000 0.000000 3.334536 50.610698 -4.100122 4.725495 -10.914488 -1.846787 21.045543 0.691679 -7.228717 -16.435493 -25.530287 4.235030 -8.865308 0.424847 0.139273 0.000000 0.000000 0.000000 0.919372 46.530032 -3.369079 6.214717 10.666220 -0.849266 -0.290430 7.632687 -0.181188 0.873037 -1.872397 0.507161 0.000000 0.000000 0.000000 0.263267 7.654423 -0.413899 9.291283 -8.894167 -8.109262 -12.578223 -56.272815 8.702280 0.000000 0.000000 0.000000 -0.256412 7.832583 -0.435006 -2.426854 -4.524497 -16.784949 0.520234 3.844833 -4.286957 19.741412 -52.921159 -38.383208 2.964161 -67.352782 1.475039 0.000000 0.000000 0.000000 -0.122100 7.514166 -0.928656 -6.245546 25.541786 23.167949 -3.582909 0.365025 3.200510 3.247662 25.080574 45.471540 -2.303595 64.440840 -0.208551 0.000000 0.000000 0.000000 
59.496532 98.642113 41.678753 0.000000 0.000000 0.000000 2.735608 43.344039 -3.537666 -28.563440 -4.864498 7.283464 25.042095 3.833591 -6.246500 3.432049 -10.715678 1.790777 2.637430 -4.511801 1.233391 0.000000 0.000000 0.000000 3.168463 47.778679 -3.860327 3.793029 -11.179378 -1.609573 20.436541 1.232365 -7.470202 -17.236227 -24.105611 5.059392 -7.074220 0.759111 -2.263363 0.000000 0.000000 0.000000 0.881203 44.208758 -3.237370 6.091217 9.986416 -0.596740 -0.121685 6.871044 0.064229 0.937403 -1.673116 0.465697 0.000000 0.000000 0.000000 0.435818 6.930251 -0.140430 7.589532 -7.572770 -10.757055 -10.275911 -53.890722 9.613881 0.000000 0.000000 0.000000 -0.006232 7.114145 -0.161050 -2.218339 -4.295252 -16.940507 0.632772 3.550226 -4.204940 17.707537 -51.763149 -40.882405 2.703955 -68.140945 1.312651 0.000000 0.000000 0.000000 0.024292 6.791354 -0.629039 -5.830899 24.232717 23.290896 -3.175500 0.629760 3.105495 5.041302 24.582966 44.398320 -2.083822 69.484006 -0.305193 0.000000 0.000000 0.000000 
58.301182 98.794617 41.453350 0.000000 0.000000 0.000000 2.676138 40.803912 -3.399824 -28.626791 -3.008927 8.544462 24.536152 3.129261 -5.885294 3.862152 -9.653318 1.229890 2.139440 -4.453987 1.171797 0.000000 0.000000 0.000000 2.971365 45.145877 -3.624886 3.033517 -11.180113 -1.340300 19.759193 1.721424 -7.659221 -17.258088 -22.302081 5.694804 -5.707066 0.724126 -3.366151 0.000000 0.000000 0.000000 0.772725 41.913835 -2.999012 5.932663 9.367947 -0.433153 0.027944 6.232071 0.266267 0.863503 -1.425846 0.413202 0.000000 0.000000 0.000000 0.601044 6.339564 0.102299 6.413391 -6.431779 -12.752414 -8.773979 -51.690735 10.096197 0.000000 0.000000 0.000000 0.206893 6.526157 0.068907 -1.977605 -4.129247 -16.987835 0.853245 3.450198 -4.009502 15.820875 -50.969856 -43.216181 2.718035 -68.552710 1.394127 0.000000 0.000000 0.000000 0.177612 6.219826 -0.331579 -5.365840 22.805506 23.376620 -2.877825 0.698588 2.877866 6.045270 23.678509 43.850733 -2.005744 73.606196 -0.259589 0.000000 0.000000 0.000000 
57.037987 99.002625 41.239288 0.000000 0.000000 0.000000 2.516250 38.539517 -3.232117 -28.791570 -1.235801 9.729528 24.032123 2.102518 -5.469233 4.518069 -8.564473 0.691497 1.646195 -4.367637 1.126234 0.000000 0.000000 0.000000 2.759192 42.686316 -3.407276 2.536972 -10.917012 -1.024802 18.953160 1.917237 -7.816088 -17.349645 -20.384252 5.423242 -4.410978 0.426411 -3.312507 0.000000 0.000000 0.000000 0.611659 39.669148 -2.719741 5.728526 8.838545 -0.324095 0.153916 5.744556 0.414710 0.743140 -1.228097 0.336812 0.000000 0.000000 0.000000 0.730712 5.898383 0.294402 5.743967 -5.554690 -14.006403 -7.945035 -49.597986 10.223881 0.000000 0.000000 0.000000 0.344916 6.083128 0.241655 -1.712269 -3.976286 -16.930355 1.081711 3.646119 -3.819591 13.958117 -50.557709 -45.410011 3.132455 -68.810024 1.796007 0.000000 0.000000 0.000000 0.312295 5.817725 -0.050165 -4.839225 21.314930 23.375923 -2.652231 0.566485 2.570128 6.175380 22.590021 43.814017 -2.233046 76.649394 0.109208 0.000000 0.000000 0.000000 
